<svg xmlns="http://www.w3.org/2000/svg" xmlns:xlink="http://www.w3.org/1999/xlink" width="2000" zoomAndPan="magnify" viewBox="0 0 1500 1500" height="2000" preserveAspectRatio="xMidYMid meet" version="1.0"><defs><g/><clipPath id="359f55738b"><path d="M 890.47 492.85 L 1030.5 492.85 L 1030.5 792.85 L 890.47 792.85 Z M 890.47 492.85 " clip-rule="nonzero"/></clipPath></defs><g fill="#b0ddec" fill-opacity="1"><g transform="translate(180.95, 984.37)"><g><path d="M 144.08 -548.09 C 132.07 -520.96 127.75 -496.69 131.14 -475.28 C 134.54 -453.88 143.67 -434.55 158.55 -417.33 C 173.43 -400.11 192.49 -383.8 215.72 -368.39 C 238.95 -352.99 264.13 -337.47 291.28 -321.81 C 319.99 -305.63 346.74 -290.76 371.53 -277.19 C 396.32 -263.61 417.98 -249.78 436.52 -235.69 C 455.05 -221.59 469.4 -205.8 479.58 -188.31 C 489.77 -170.82 494.86 -149.81 494.86 -125.28 C 494.86 -99.18 488.85 -76.73 476.84 -57.94 C 464.84 -39.14 448.66 -24.79 428.3 -14.88 C 407.94 -4.96 385.24 0 360.19 0 C 376.88 -25.57 386.27 -48.14 388.36 -67.72 C 390.45 -87.3 385.23 -105.97 372.7 -123.72 C 360.18 -141.47 339.96 -159.87 312.03 -178.92 C 284.1 -197.97 248.47 -219.5 205.14 -243.52 C 167.04 -264.91 135.72 -285.27 111.19 -304.58 C 86.66 -323.9 68.52 -344.52 56.77 -366.44 C 45.02 -388.36 39.16 -413.16 39.16 -440.83 C 39.16 -471.63 48.55 -497.21 67.34 -517.56 C 86.13 -537.91 111.71 -548.09 144.08 -548.09 Z M 455.7 -430.66 C 447.88 -454.14 439.4 -473.07 430.27 -487.42 C 421.13 -501.77 409.38 -513.52 395.02 -522.66 C 380.66 -531.79 361.74 -540.27 338.25 -548.09 L 455.7 -548.09 Z M 54.81 -156.59 C 66.81 -113.79 85.21 -79.99 110 -55.2 C 134.8 -30.41 168.6 -12.01 211.41 0 L 54.81 0 Z M 54.81 -156.59 "/></g></g></g><g fill="#b0ddec" fill-opacity="1"><g transform="translate(675.81, 984.37)"><g><path d="M 35.23 0 C 49.85 -15.13 60.68 -29.36 67.72 -42.67 C 74.77 -55.98 79.6 -71.38 82.2 -88.86 C 84.82 -106.35 86.12 -128.93 86.12 -156.59 L 86.12 -391.5 C 86.12 -419.16 84.82 -441.74 82.2 -459.22 C 79.6 -476.71 74.77 -492.24 67.72 -505.81 C 60.68 -519.38 49.85 -533.48 35.23 -548.09 L 238.81 -548.09 C 224.72 -533.48 214.02 -519.38 206.7 -505.81 C 199.4 -492.24 194.44 -476.71 191.83 -459.22 C 189.22 -441.74 187.92 -419.16 187.92 -391.5 L 187.92 -156.59 C 187.92 -128.93 189.22 -106.35 191.83 -88.86 C 194.44 -71.38 199.4 -55.98 206.7 -42.67 C 214.02 -29.36 224.72 -15.13 238.81 0 Z M 568.45 -346.09 C 568.45 -309.55 560.62 -278.36 544.97 -252.52 C 529.31 -226.68 508.95 -205.8 483.89 -189.88 C 458.84 -173.96 431.69 -162.34 402.45 -155.03 C 373.22 -147.73 344.77 -144.08 317.11 -144.08 C 341.65 -156.08 364.1 -171.73 384.45 -191.05 C 404.8 -210.36 420.99 -232.94 433 -258.78 C 445.01 -284.62 451.02 -313.73 451.02 -346.09 C 451.02 -378.45 445.01 -407.55 433 -433.39 C 420.99 -459.23 404.8 -481.81 384.45 -501.12 C 364.1 -520.44 341.65 -536.09 317.11 -548.09 C 344.77 -548.09 373.22 -544.44 402.45 -537.12 C 431.69 -529.82 458.84 -518.21 483.89 -502.28 C 508.95 -486.36 529.31 -465.48 544.97 -439.64 C 560.62 -413.8 568.45 -382.62 568.45 -346.09 Z M 568.45 -346.09 "/></g></g></g><g fill="#000000" fill-opacity="1"><g transform="translate(207.38, 984.37)"><g><path d="M 144.08 -548.09 C 132.07 -520.96 127.75 -496.69 131.14 -475.28 C 134.54 -453.88 143.67 -434.55 158.55 -417.33 C 173.43 -400.11 192.49 -383.8 215.72 -368.39 C 238.95 -352.99 264.13 -337.47 291.28 -321.81 C 319.99 -305.63 346.74 -290.76 371.53 -277.19 C 396.32 -263.61 417.98 -249.78 436.52 -235.69 C 455.05 -221.59 469.4 -205.8 479.58 -188.31 C 489.77 -170.82 494.86 -149.81 494.86 -125.28 C 494.86 -99.18 488.85 -76.73 476.84 -57.94 C 464.84 -39.14 448.66 -24.79 428.3 -14.88 C 407.94 -4.96 385.24 0 360.19 0 C 376.88 -25.57 386.27 -48.14 388.36 -67.72 C 390.45 -87.3 385.23 -105.97 372.7 -123.72 C 360.18 -141.47 339.96 -159.87 312.03 -178.92 C 284.1 -197.97 248.47 -219.5 205.14 -243.52 C 167.04 -264.91 135.72 -285.27 111.19 -304.58 C 86.66 -323.9 68.52 -344.52 56.77 -366.44 C 45.02 -388.36 39.16 -413.16 39.16 -440.83 C 39.16 -471.63 48.55 -497.21 67.34 -517.56 C 86.13 -537.91 111.71 -548.09 144.08 -548.09 Z M 455.7 -430.66 C 447.88 -454.14 439.4 -473.07 430.27 -487.42 C 421.13 -501.77 409.38 -513.52 395.02 -522.66 C 380.66 -531.79 361.74 -540.27 338.25 -548.09 L 455.7 -548.09 Z M 54.81 -156.59 C 66.81 -113.79 85.21 -79.99 110 -55.2 C 134.8 -30.41 168.6 -12.01 211.41 0 L 54.81 0 Z M 54.81 -156.59 "/></g></g></g><g fill="#000000" fill-opacity="1"><g transform="translate(702.24, 984.37)"><g><path d="M 35.23 0 C 49.85 -15.13 60.68 -29.36 67.72 -42.67 C 74.77 -55.98 79.6 -71.38 82.2 -88.86 C 84.82 -106.35 86.12 -128.93 86.12 -156.59 L 86.12 -391.5 C 86.12 -419.16 84.82 -441.74 82.2 -459.22 C 79.6 -476.71 74.77 -492.24 67.72 -505.81 C 60.68 -519.38 49.85 -533.48 35.23 -548.09 L 238.81 -548.09 C 224.72 -533.48 214.02 -519.38 206.7 -505.81 C 199.4 -492.24 194.44 -476.71 191.83 -459.22 C 189.22 -441.74 187.92 -419.16 187.92 -391.5 L 187.92 -156.59 C 187.92 -128.93 189.22 -106.35 191.83 -88.86 C 194.44 -71.38 199.4 -55.98 206.7 -42.67 C 214.02 -29.36 224.72 -15.13 238.81 0 Z M 568.45 -346.09 C 568.45 -309.55 560.62 -278.36 544.97 -252.52 C 529.31 -226.68 508.95 -205.8 483.89 -189.88 C 458.84 -173.96 431.69 -162.34 402.45 -155.03 C 373.22 -147.73 344.77 -144.08 317.11 -144.08 C 341.65 -156.08 364.1 -171.73 384.45 -191.05 C 404.8 -210.36 420.99 -232.94 433 -258.78 C 445.01 -284.62 451.02 -313.73 451.02 -346.09 C 451.02 -378.45 445.01 -407.55 433 -433.39 C 420.99 -459.23 404.8 -481.81 384.45 -501.12 C 364.1 -520.44 341.65 -536.09 317.11 -548.09 C 344.77 -548.09 373.22 -544.44 402.45 -537.12 C 431.69 -529.82 458.84 -518.21 483.89 -502.28 C 508.95 -486.36 529.31 -465.48 544.97 -439.64 C 560.62 -413.8 568.45 -382.62 568.45 -346.09 Z M 568.45 -346.09 "/></g></g></g><g clip-path="url(#359f55738b)"><path fill="#b0ddec" d="M 754.81 718.18 L 787.73 725.52 C 788.13 725.61 788.53 725.65 788.93 725.65 C 789.52 725.65 790.09 725.56 790.64 725.38 C 791.2 725.2 791.71 724.94 792.18 724.59 C 792.65 724.25 793.05 723.84 793.39 723.37 C 793.73 722.89 793.99 722.38 794.16 721.82 L 799.33 705.64 L 809.84 699.61 L 808.77 723.92 C 808.75 724.29 808.77 724.64 808.82 725 C 808.88 725.35 808.97 725.7 809.09 726.04 C 809.21 726.38 809.37 726.7 809.55 727.01 C 809.74 727.32 809.95 727.61 810.2 727.87 C 810.44 728.14 810.71 728.38 811 728.59 C 811.29 728.8 811.59 728.99 811.92 729.14 C 812.25 729.29 812.58 729.41 812.93 729.5 C 813.28 729.59 813.64 729.64 814 729.66 L 826.71 730.25 L 826.97 730.25 C 827.32 730.25 827.67 730.21 828.01 730.15 C 828.36 730.08 828.69 729.98 829.01 729.86 C 829.34 729.73 829.65 729.57 829.94 729.38 C 830.23 729.19 830.51 728.97 830.76 728.73 C 831.02 728.49 831.24 728.23 831.45 727.94 C 831.64 727.66 831.82 727.36 831.96 727.04 C 832.11 726.72 832.22 726.39 832.3 726.05 C 832.38 725.71 832.43 725.37 832.45 725.02 L 834.26 685.6 L 875.71 661.78 L 875.62 708.79 L 841.6 730.34 C 841.29 730.54 841.01 730.75 840.75 731 C 840.49 731.25 840.25 731.52 840.05 731.82 C 839.84 732.11 839.66 732.43 839.52 732.75 C 839.37 733.09 839.26 733.43 839.18 733.78 C 839.1 734.13 839.05 734.48 839.05 734.84 C 839.04 735.21 839.06 735.56 839.12 735.92 C 839.19 736.27 839.28 736.62 839.41 736.96 C 839.54 737.29 839.7 737.61 839.89 737.92 L 846.72 748.63 C 846.91 748.94 847.13 749.22 847.38 749.48 C 847.63 749.74 847.9 749.98 848.2 750.18 C 848.49 750.39 848.8 750.57 849.13 750.71 C 849.46 750.86 849.8 750.97 850.16 751.05 C 850.51 751.13 850.86 751.17 851.22 751.18 C 851.58 751.19 851.94 751.16 852.3 751.11 C 852.65 751.04 853 750.95 853.33 750.82 C 853.67 750.69 853.99 750.53 854.29 750.34 L 875.51 736.88 L 875.51 748.58 L 863.25 761.92 C 863.02 762.17 862.82 762.44 862.64 762.73 C 862.46 763.02 862.3 763.32 862.18 763.63 C 862.06 763.95 861.96 764.27 861.9 764.61 C 861.84 764.94 861.81 765.28 861.81 765.62 C 861.81 765.96 861.84 766.3 861.9 766.63 C 861.96 766.96 862.06 767.29 862.18 767.61 C 862.3 767.93 862.46 768.23 862.64 768.52 C 862.82 768.8 863.02 769.07 863.25 769.32 L 885.97 794.28 C 886.23 794.56 886.51 794.81 886.82 795.03 C 887.13 795.25 887.46 795.44 887.8 795.59 C 888.15 795.75 888.52 795.86 888.89 795.94 C 889.26 796.02 889.64 796.06 890.02 796.06 C 890.4 796.06 890.77 796.02 891.15 795.94 C 891.52 795.86 891.88 795.75 892.23 795.59 C 892.58 795.44 892.91 795.25 893.22 795.03 C 893.53 794.81 893.81 794.56 894.07 794.28 L 916.88 769.42 C 917.11 769.17 917.32 768.9 917.5 768.61 C 917.68 768.32 917.83 768.02 917.95 767.7 C 918.07 767.39 918.17 767.06 918.23 766.73 C 918.29 766.39 918.32 766.05 918.32 765.71 C 918.32 765.38 918.29 765.04 918.23 764.71 C 918.17 764.37 918.07 764.05 917.95 763.73 C 917.83 763.41 917.68 763.11 917.5 762.82 C 917.32 762.54 917.11 762.27 916.88 762.02 L 905.44 749.45 L 905.44 737.34 L 925.93 750.45 C 926.24 750.65 926.55 750.81 926.89 750.95 C 927.23 751.07 927.57 751.17 927.93 751.24 C 928.29 751.3 928.64 751.33 929 751.32 C 929.36 751.32 929.72 751.27 930.07 751.2 C 930.42 751.12 930.77 751.01 931.09 750.86 C 931.43 750.72 931.74 750.54 932.04 750.34 C 932.33 750.13 932.6 749.9 932.85 749.64 C 933.1 749.38 933.32 749.1 933.52 748.79 L 940.39 738.08 C 940.58 737.77 940.74 737.45 940.88 737.12 C 941 736.79 941.1 736.44 941.16 736.08 C 941.23 735.73 941.25 735.37 941.25 735.01 C 941.24 734.65 941.2 734.3 941.12 733.95 C 941.04 733.59 940.93 733.25 940.79 732.92 C 940.64 732.59 940.47 732.28 940.26 731.98 C 940.05 731.69 939.82 731.42 939.56 731.17 C 939.3 730.92 939.02 730.7 938.71 730.5 L 905.5 709.23 L 905.6 661.41 L 946.26 684.98 L 947.94 725.19 C 947.96 725.54 948 725.88 948.08 726.23 C 948.16 726.57 948.27 726.9 948.42 727.22 C 948.56 727.54 948.73 727.84 948.94 728.13 C 949.14 728.41 949.37 728.68 949.62 728.92 C 949.87 729.16 950.14 729.38 950.44 729.57 C 950.73 729.76 951.04 729.92 951.37 730.05 C 951.7 730.18 952.03 730.28 952.38 730.35 C 952.72 730.41 953.07 730.45 953.42 730.45 L 953.65 730.45 L 966.37 729.93 C 966.73 729.91 967.09 729.86 967.43 729.77 C 967.79 729.69 968.12 729.57 968.45 729.41 C 968.77 729.26 969.08 729.08 969.38 728.87 C 969.66 728.66 969.93 728.42 970.18 728.15 C 970.42 727.89 970.63 727.6 970.82 727.29 C 971.01 726.99 971.16 726.66 971.29 726.32 C 971.41 725.99 971.5 725.64 971.56 725.29 C 971.61 724.93 971.64 724.57 971.62 724.21 L 970.55 699.11 L 980.68 704.98 L 986.11 722.26 C 986.28 722.82 986.54 723.34 986.88 723.81 C 987.21 724.29 987.62 724.7 988.09 725.04 C 988.56 725.39 989.07 725.65 989.63 725.83 C 990.18 726.01 990.75 726.1 991.34 726.1 C 991.73 726.1 992.12 726.06 992.5 725.98 L 1025.47 718.78 C 1025.85 718.7 1026.21 718.58 1026.55 718.43 C 1026.9 718.27 1027.23 718.08 1027.54 717.86 C 1027.85 717.63 1028.13 717.38 1028.38 717.09 C 1028.64 716.81 1028.86 716.5 1029.05 716.18 C 1029.25 715.84 1029.4 715.5 1029.52 715.14 C 1029.64 714.77 1029.72 714.4 1029.76 714.02 C 1029.8 713.64 1029.8 713.27 1029.77 712.89 C 1029.73 712.51 1029.65 712.14 1029.54 711.77 L 1019.42 679.63 C 1019.25 679.07 1018.99 678.55 1018.65 678.08 C 1018.31 677.61 1017.91 677.2 1017.44 676.85 C 1016.96 676.51 1016.45 676.24 1015.9 676.06 C 1015.34 675.88 1014.77 675.79 1014.19 675.79 C 1013.79 675.79 1013.4 675.83 1013.01 675.91 L 996.41 679.53 L 985.98 673.5 L 1007.6 662.3 C 1007.92 662.14 1008.22 661.94 1008.5 661.71 C 1008.78 661.49 1009.04 661.24 1009.27 660.96 C 1009.5 660.69 1009.7 660.39 1009.88 660.08 C 1010.05 659.76 1010.19 659.43 1010.3 659.09 C 1010.41 658.75 1010.48 658.4 1010.52 658.04 C 1010.57 657.68 1010.57 657.32 1010.54 656.96 C 1010.51 656.61 1010.45 656.25 1010.34 655.91 C 1010.25 655.56 1010.11 655.23 1009.95 654.91 L 1004.09 643.59 C 1003.86 643.15 1003.57 642.74 1003.23 642.38 C 1002.89 642.01 1002.5 641.7 1002.07 641.43 C 1001.64 641.17 1001.18 640.97 1000.7 640.84 C 1000.22 640.7 999.73 640.64 999.22 640.64 C 998.33 640.64 997.49 640.84 996.7 641.25 L 961.67 659.4 L 920.31 635.4 L 961.02 611.98 L 996.71 630.64 C 997.52 631.06 998.36 631.27 999.27 631.27 C 999.77 631.27 1000.26 631.21 1000.74 631.07 C 1001.22 630.94 1001.68 630.74 1002.11 630.48 C 1002.53 630.22 1002.92 629.91 1003.26 629.54 C 1003.6 629.18 1003.89 628.77 1004.12 628.33 L 1010.02 617.04 C 1010.19 616.72 1010.32 616.39 1010.43 616.05 C 1010.53 615.7 1010.59 615.35 1010.62 614.99 C 1010.66 614.63 1010.66 614.27 1010.62 613.91 C 1010.58 613.56 1010.51 613.21 1010.4 612.86 C 1010.29 612.52 1010.15 612.19 1009.98 611.87 C 1009.81 611.55 1009.61 611.26 1009.38 610.98 C 1009.14 610.71 1008.89 610.46 1008.61 610.23 C 1008.33 610 1008.03 609.81 1007.71 609.64 L 985.45 597.98 L 995.59 592.15 L 1013.27 596.1 C 1013.66 596.18 1014.07 596.22 1014.47 596.23 C 1015.05 596.23 1015.62 596.14 1016.18 595.96 C 1016.73 595.78 1017.24 595.52 1017.71 595.17 C 1018.18 594.83 1018.59 594.42 1018.93 593.95 C 1019.27 593.47 1019.52 592.96 1019.7 592.4 L 1029.94 560.25 C 1030.06 559.89 1030.14 559.52 1030.18 559.14 C 1030.23 558.75 1030.23 558.37 1030.19 557.99 C 1030.15 557.61 1030.07 557.23 1029.95 556.87 C 1029.84 556.5 1029.68 556.16 1029.49 555.82 C 1029.3 555.49 1029.07 555.18 1028.82 554.89 C 1028.56 554.61 1028.28 554.35 1027.97 554.12 C 1027.66 553.9 1027.33 553.71 1026.98 553.55 C 1026.63 553.39 1026.27 553.27 1025.89 553.2 L 992.95 545.86 C 992.56 545.77 992.17 545.72 991.77 545.73 C 991.18 545.73 990.61 545.82 990.06 546 C 989.51 546.18 989 546.44 988.52 546.78 C 988.05 547.12 987.65 547.54 987.31 548.01 C 986.97 548.48 986.71 549 986.54 549.55 L 981.37 565.73 L 970.87 571.77 L 971.94 547.45 C 971.96 547.09 971.94 546.74 971.89 546.38 C 971.84 546.03 971.75 545.68 971.63 545.35 C 971.51 545.01 971.36 544.69 971.17 544.38 C 970.99 544.07 970.78 543.79 970.54 543.52 C 970.3 543.25 970.04 543.01 969.75 542.8 C 969.46 542.58 969.16 542.4 968.84 542.24 C 968.52 542.09 968.18 541.96 967.83 541.88 C 967.49 541.79 967.14 541.73 966.78 541.71 L 954.1 541.14 L 953.86 541.14 C 953.51 541.14 953.16 541.17 952.82 541.24 C 952.47 541.3 952.14 541.4 951.81 541.53 C 951.49 541.66 951.18 541.82 950.88 542.01 C 950.59 542.2 950.32 542.42 950.06 542.66 C 949.81 542.9 949.58 543.16 949.38 543.45 C 949.18 543.73 949 544.04 948.86 544.36 C 948.71 544.68 948.6 545 948.52 545.34 C 948.43 545.68 948.39 546.03 948.37 546.38 L 946.57 585.79 L 905.11 609.61 L 905.21 562.6 L 939.1 541.04 C 939.41 540.85 939.69 540.63 939.95 540.38 C 940.21 540.13 940.44 539.86 940.65 539.56 C 940.86 539.27 941.03 538.96 941.18 538.63 C 941.32 538.3 941.44 537.96 941.52 537.61 C 941.59 537.25 941.64 536.9 941.64 536.54 C 941.65 536.18 941.62 535.82 941.57 535.46 C 941.5 535.11 941.41 534.77 941.28 534.43 C 941.15 534.09 940.99 533.77 940.79 533.47 L 933.98 522.75 C 933.79 522.45 933.57 522.17 933.32 521.91 C 933.07 521.64 932.8 521.41 932.5 521.2 C 932.21 521 931.89 520.82 931.57 520.67 C 931.23 520.53 930.89 520.41 930.54 520.34 C 930.19 520.26 929.84 520.21 929.48 520.21 C 929.11 520.2 928.76 520.23 928.4 520.29 C 928.05 520.35 927.7 520.45 927.37 520.57 C 927.03 520.71 926.71 520.87 926.41 521.06 L 905.21 534.48 L 905.21 522.77 L 917.46 509.43 C 917.69 509.18 917.89 508.91 918.07 508.62 C 918.25 508.33 918.41 508.03 918.53 507.71 C 918.66 507.39 918.75 507.07 918.81 506.73 C 918.88 506.4 918.91 506.06 918.91 505.72 C 918.91 505.38 918.88 505.05 918.81 504.71 C 918.75 504.38 918.66 504.05 918.53 503.73 C 918.41 503.42 918.25 503.12 918.07 502.83 C 917.89 502.54 917.69 502.27 917.46 502.02 L 894.8 477.07 C 894.54 476.79 894.26 476.53 893.95 476.31 C 893.64 476.09 893.31 475.9 892.96 475.75 C 892.61 475.59 892.25 475.48 891.88 475.4 C 891.5 475.32 891.13 475.28 890.75 475.28 C 890.36 475.28 889.99 475.32 889.61 475.4 C 889.24 475.48 888.88 475.59 888.53 475.75 C 888.18 475.9 887.86 476.09 887.55 476.31 C 887.23 476.53 886.95 476.79 886.7 477.07 L 863.88 501.93 C 863.64 502.18 863.44 502.44 863.26 502.73 C 863.08 503.02 862.93 503.32 862.8 503.64 C 862.68 503.96 862.59 504.28 862.52 504.61 C 862.46 504.95 862.43 505.29 862.43 505.62 C 862.43 505.96 862.46 506.3 862.52 506.64 C 862.59 506.97 862.68 507.3 862.8 507.61 C 862.93 507.93 863.08 508.23 863.26 508.52 C 863.44 508.81 863.64 509.08 863.88 509.33 L 875.3 521.89 L 875.3 534 L 854.77 520.87 C 854.46 520.67 854.14 520.51 853.81 520.38 C 853.47 520.25 853.13 520.15 852.77 520.09 C 852.42 520.02 852.06 519.99 851.7 520 C 851.34 520.01 850.98 520.05 850.63 520.12 C 850.28 520.2 849.94 520.31 849.61 520.46 C 849.28 520.6 848.97 520.78 848.67 520.98 C 848.38 521.19 848.11 521.42 847.86 521.68 C 847.61 521.94 847.38 522.23 847.19 522.53 L 840.32 533.24 C 840.13 533.55 839.96 533.87 839.84 534.2 C 839.71 534.54 839.61 534.88 839.55 535.24 C 839.48 535.59 839.45 535.95 839.46 536.31 C 839.47 536.67 839.51 537.03 839.59 537.38 C 839.66 537.73 839.78 538.07 839.92 538.4 C 840.06 538.73 840.24 539.05 840.45 539.34 C 840.65 539.64 840.88 539.91 841.14 540.16 C 841.4 540.41 841.68 540.63 841.98 540.83 L 875.2 562.09 L 875.1 609.91 L 834.44 586.34 L 832.78 546.12 C 832.77 545.77 832.72 545.43 832.64 545.09 C 832.56 544.74 832.45 544.41 832.3 544.09 C 832.16 543.77 831.98 543.47 831.78 543.18 C 831.58 542.89 831.35 542.63 831.1 542.39 C 830.84 542.14 830.57 541.93 830.27 541.74 C 829.98 541.55 829.67 541.39 829.34 541.26 C 829.02 541.13 828.68 541.03 828.34 540.97 C 827.99 540.9 827.64 540.87 827.29 540.87 L 827.07 540.87 L 814.34 541.4 C 813.98 541.41 813.63 541.46 813.28 541.55 C 812.93 541.63 812.6 541.75 812.27 541.9 C 811.95 542.05 811.64 542.23 811.35 542.44 C 811.06 542.65 810.79 542.89 810.55 543.15 C 810.3 543.41 810.09 543.7 809.9 544 C 809.71 544.31 809.56 544.63 809.43 544.96 C 809.31 545.3 809.21 545.64 809.16 546 C 809.1 546.35 809.08 546.71 809.09 547.07 L 810.16 572.18 L 800.01 566.35 L 794.58 549.07 C 794.41 548.51 794.15 547.99 793.81 547.52 C 793.47 547.04 793.07 546.63 792.59 546.29 C 792.12 545.94 791.61 545.68 791.05 545.49 C 790.5 545.31 789.93 545.22 789.34 545.22 C 788.95 545.22 788.56 545.27 788.17 545.35 L 755.21 552.54 C 754.84 552.62 754.48 552.74 754.14 552.9 C 753.79 553.05 753.46 553.24 753.15 553.47 C 752.84 553.69 752.56 553.95 752.31 554.23 C 752.05 554.51 751.83 554.82 751.64 555.15 C 751.45 555.48 751.29 555.82 751.17 556.19 C 751.05 556.55 750.97 556.92 750.93 557.3 C 750.89 557.68 750.88 558.05 750.92 558.43 C 750.95 558.81 751.03 559.18 751.14 559.55 L 761.27 591.69 C 761.44 592.25 761.7 592.77 762.04 593.25 C 762.38 593.72 762.78 594.13 763.25 594.48 C 763.72 594.82 764.23 595.09 764.79 595.27 C 765.34 595.45 765.91 595.54 766.5 595.54 C 766.89 595.54 767.28 595.5 767.66 595.41 L 784.26 591.79 L 794.74 597.86 L 773.13 609.11 C 772.81 609.27 772.51 609.46 772.23 609.69 C 771.95 609.91 771.69 610.16 771.46 610.44 C 771.23 610.71 771.02 611.01 770.85 611.32 C 770.68 611.64 770.53 611.97 770.42 612.31 C 770.31 612.66 770.24 613.01 770.2 613.36 C 770.16 613.72 770.15 614.08 770.18 614.44 C 770.21 614.8 770.28 615.15 770.38 615.5 C 770.48 615.84 770.61 616.18 770.77 616.5 L 776.63 627.81 C 776.8 628.13 777 628.43 777.22 628.71 C 777.45 628.99 777.7 629.25 777.97 629.48 C 778.25 629.71 778.54 629.91 778.86 630.09 C 779.17 630.26 779.5 630.4 779.84 630.51 C 780.19 630.62 780.54 630.7 780.9 630.73 C 781.25 630.77 781.61 630.78 781.97 630.75 C 782.33 630.72 782.68 630.66 783.03 630.55 C 783.38 630.46 783.71 630.32 784.03 630.16 L 819.1 612.02 L 860.42 636 L 819.71 659.42 L 784 640.78 C 783.69 640.61 783.36 640.48 783.01 640.38 C 782.66 640.27 782.31 640.21 781.95 640.18 C 781.59 640.14 781.23 640.15 780.88 640.19 C 780.52 640.23 780.17 640.3 779.82 640.41 C 779.48 640.51 779.15 640.65 778.84 640.82 C 778.52 641 778.22 641.2 777.95 641.43 C 777.67 641.66 777.42 641.91 777.19 642.2 C 776.96 642.47 776.77 642.77 776.6 643.09 L 770.7 654.38 C 770.53 654.7 770.4 655.04 770.3 655.38 C 770.2 655.73 770.13 656.08 770.09 656.44 C 770.06 656.8 770.07 657.16 770.11 657.52 C 770.14 657.88 770.22 658.22 770.32 658.57 C 770.43 658.91 770.57 659.24 770.75 659.56 C 770.92 659.88 771.12 660.17 771.36 660.45 C 771.59 660.72 771.84 660.97 772.12 661.2 C 772.4 661.43 772.7 661.62 773.02 661.79 L 795.29 673.43 L 785.15 679.27 L 767.45 675.33 C 767.06 675.24 766.66 675.19 766.26 675.19 C 765.68 675.19 765.11 675.28 764.56 675.46 C 764 675.64 763.49 675.91 763.02 676.25 C 762.55 676.59 762.14 677 761.8 677.48 C 761.46 677.95 761.21 678.46 761.03 679.02 L 750.78 711.16 C 750.55 711.9 750.47 712.65 750.55 713.41 C 750.64 714.18 750.87 714.9 751.25 715.57 C 751.63 716.23 752.14 716.79 752.75 717.25 C 753.38 717.7 754.06 718.01 754.81 718.18 Z M 766.25 678.94 C 766.38 678.93 766.5 678.93 766.62 678.94 L 785.09 683.14 C 785.21 683.16 785.34 683.16 785.46 683.14 C 785.77 683.14 786.06 683.07 786.33 682.92 L 800.34 674.87 C 800.61 674.71 800.82 674.5 800.98 674.22 C 801.14 673.95 801.21 673.65 801.2 673.33 C 801.2 673.02 801.11 672.72 800.94 672.45 C 800.77 672.18 800.55 671.98 800.27 671.83 L 774.76 658.5 C 774.55 658.39 774.38 658.25 774.23 658.07 C 774.08 657.89 773.98 657.7 773.91 657.48 C 773.84 657.26 773.81 657.04 773.83 656.8 C 773.85 656.57 773.91 656.36 774.02 656.15 L 779.92 644.87 C 780.07 644.58 780.29 644.36 780.56 644.19 C 780.84 644.02 781.14 643.94 781.46 643.94 C 781.75 643.94 782.02 644 782.27 644.13 L 818.9 663.3 C 819.46 663.6 820.01 663.6 820.56 663.3 L 865.31 637.58 C 865.58 637.43 865.79 637.22 865.95 636.95 C 866.11 636.68 866.18 636.39 866.18 636.08 C 866.18 635.77 866.11 635.48 865.95 635.21 C 865.79 634.95 865.58 634.74 865.31 634.58 L 819.98 608.21 C 819.71 608.06 819.43 607.98 819.12 607.98 C 818.83 607.98 818.57 608.05 818.31 608.18 L 782.3 626.82 C 782.05 626.96 781.79 627.02 781.51 627.02 C 781.18 627.02 780.88 626.94 780.61 626.77 C 780.33 626.6 780.12 626.38 779.96 626.09 L 774.09 614.77 C 773.99 614.57 773.93 614.35 773.91 614.12 C 773.89 613.89 773.91 613.67 773.98 613.45 C 774.05 613.23 774.16 613.03 774.31 612.86 C 774.46 612.68 774.64 612.54 774.84 612.44 L 799.71 599.58 C 800 599.43 800.22 599.23 800.39 598.96 C 800.55 598.69 800.64 598.39 800.65 598.08 C 800.66 597.76 800.59 597.46 800.43 597.19 C 800.28 596.91 800.06 596.7 799.79 596.54 L 785.46 588.22 C 785.19 588.07 784.89 587.99 784.58 588 C 784.46 587.98 784.34 587.98 784.22 588 L 766.86 591.79 C 766.74 591.8 766.61 591.8 766.49 591.79 C 766.11 591.79 765.77 591.67 765.46 591.45 C 765.15 591.22 764.94 590.93 764.82 590.57 L 754.71 558.42 C 754.64 558.19 754.61 557.95 754.64 557.71 C 754.67 557.47 754.74 557.24 754.86 557.03 C 754.99 556.82 755.15 556.64 755.34 556.5 C 755.54 556.36 755.76 556.26 756 556.2 L 788.96 549.02 C 789.09 549 789.21 549 789.33 549.02 C 789.71 549.02 790.05 549.13 790.36 549.36 C 790.67 549.58 790.88 549.88 790.99 550.24 L 796.66 568.26 C 796.79 568.69 797.05 569.02 797.44 569.25 L 811.37 577.34 C 811.64 577.5 811.94 577.58 812.26 577.58 C 812.57 577.57 812.87 577.49 813.14 577.33 C 813.41 577.16 813.62 576.94 813.77 576.66 C 813.92 576.38 813.99 576.09 813.98 575.77 L 812.84 546.96 C 812.83 546.73 812.86 546.5 812.94 546.29 C 813.02 546.07 813.14 545.88 813.29 545.71 C 813.45 545.54 813.63 545.41 813.84 545.31 C 814.05 545.21 814.27 545.16 814.5 545.15 L 827.23 544.62 L 827.29 544.62 C 827.52 544.62 827.73 544.66 827.94 544.75 C 828.15 544.83 828.34 544.95 828.5 545.1 C 828.66 545.26 828.79 545.44 828.88 545.64 C 828.97 545.84 829.02 546.06 829.03 546.28 L 830.75 587.59 C 830.77 587.88 830.85 588.16 831 588.41 C 831.15 588.66 831.36 588.87 831.61 589.02 L 876.25 614.91 C 876.38 614.99 876.52 615.05 876.67 615.09 C 876.81 615.12 876.96 615.14 877.12 615.14 C 877.27 615.14 877.42 615.12 877.57 615.09 C 877.71 615.05 877.85 614.99 877.98 614.91 C 878.12 614.84 878.23 614.75 878.34 614.64 C 878.45 614.53 878.54 614.41 878.62 614.28 C 878.7 614.14 878.75 614.01 878.79 613.86 C 878.83 613.71 878.85 613.56 878.85 613.41 L 878.97 561 C 878.97 560.36 878.7 559.87 878.17 559.53 L 844.01 537.68 C 843.82 537.55 843.65 537.4 843.52 537.21 C 843.39 537.02 843.3 536.81 843.25 536.59 C 843.2 536.36 843.2 536.14 843.24 535.91 C 843.28 535.68 843.36 535.47 843.48 535.28 L 850.35 524.56 C 850.47 524.37 850.63 524.2 850.82 524.07 C 851.01 523.94 851.21 523.85 851.44 523.8 C 851.67 523.75 851.89 523.75 852.12 523.79 C 852.35 523.83 852.56 523.91 852.75 524.04 L 876.32 539.14 C 876.61 539.32 876.92 539.42 877.26 539.41 C 877.49 539.41 877.71 539.37 877.92 539.28 C 878.13 539.2 878.32 539.07 878.48 538.91 C 878.64 538.74 878.77 538.55 878.86 538.34 C 878.95 538.13 878.99 537.91 878.99 537.68 L 878.99 521.11 C 878.99 520.66 878.84 520.27 878.54 519.93 L 866.64 506.79 C 866.49 506.63 866.38 506.45 866.3 506.24 C 866.22 506.04 866.18 505.83 866.18 505.61 C 866.18 505.4 866.22 505.19 866.3 504.98 C 866.38 504.79 866.49 504.6 866.64 504.44 L 889.46 479.56 C 889.8 479.19 890.23 479 890.73 479 C 891.25 479 891.68 479.2 892.02 479.57 L 914.74 504.53 C 914.88 504.69 915 504.87 915.07 505.07 C 915.15 505.27 915.19 505.48 915.19 505.7 C 915.19 505.91 915.15 506.12 915.07 506.32 C 915 506.52 914.88 506.7 914.74 506.86 L 901.95 520.79 C 901.66 521.12 901.5 521.51 901.5 521.96 L 901.5 538.12 C 901.5 538.35 901.55 538.57 901.63 538.79 C 901.72 539 901.85 539.19 902.01 539.35 C 902.17 539.51 902.36 539.64 902.57 539.73 C 902.79 539.81 903.01 539.86 903.24 539.86 C 903.57 539.85 903.89 539.76 904.17 539.59 L 928.48 524.16 C 928.68 524.04 928.89 523.95 929.12 523.91 C 929.34 523.88 929.57 523.88 929.79 523.93 C 930.02 523.98 930.23 524.07 930.41 524.2 C 930.6 524.34 930.76 524.5 930.88 524.69 L 937.71 535.41 C 937.83 535.6 937.91 535.81 937.95 536.04 C 937.99 536.27 937.98 536.49 937.93 536.72 C 937.89 536.94 937.79 537.15 937.66 537.34 C 937.53 537.53 937.37 537.68 937.17 537.81 L 902.21 560.01 C 901.68 560.35 901.41 560.84 901.41 561.48 L 901.3 613.08 C 901.3 613.31 901.35 613.53 901.43 613.74 C 901.52 613.95 901.65 614.14 901.81 614.3 C 901.97 614.46 902.16 614.59 902.38 614.68 C 902.59 614.77 902.8 614.81 903.04 614.82 C 903.34 614.82 903.63 614.74 903.9 614.59 L 949.34 588.48 C 949.89 588.16 950.18 587.68 950.21 587.05 L 952.07 546.54 C 952.08 546.32 952.14 546.11 952.23 545.91 C 952.33 545.71 952.46 545.54 952.62 545.39 C 952.78 545.24 952.96 545.12 953.16 545.04 C 953.37 544.96 953.58 544.92 953.8 544.92 L 953.88 544.92 L 966.61 545.51 C 966.84 545.52 967.05 545.58 967.26 545.68 C 967.47 545.77 967.65 545.91 967.8 546.08 C 967.96 546.25 968.08 546.44 968.16 546.66 C 968.23 546.87 968.27 547.09 968.26 547.32 L 966.96 575.27 C 966.95 575.5 966.99 575.73 967.07 575.96 C 967.15 576.18 967.28 576.38 967.44 576.55 C 967.61 576.72 967.8 576.85 968.01 576.95 C 968.23 577.04 968.46 577.09 968.7 577.09 C 969 577.09 969.29 577.01 969.55 576.85 L 983.92 568.6 C 984.31 568.37 984.57 568.04 984.71 567.62 L 990.07 550.69 C 990.19 550.33 990.4 550.04 990.71 549.81 C 991.01 549.59 991.36 549.48 991.73 549.48 C 991.86 549.46 991.98 549.46 992.11 549.48 L 1025.05 556.8 C 1025.29 556.86 1025.5 556.96 1025.7 557.1 C 1025.89 557.25 1026.05 557.43 1026.18 557.64 C 1026.3 557.85 1026.37 558.08 1026.39 558.32 C 1026.42 558.56 1026.39 558.8 1026.32 559.04 L 1016.07 591.18 C 1015.95 591.54 1015.74 591.83 1015.44 592.05 C 1015.13 592.27 1014.79 592.39 1014.42 592.39 C 1014.29 592.41 1014.17 592.41 1014.04 592.39 L 995.59 588.29 C 995.46 588.27 995.34 588.27 995.21 588.29 C 994.91 588.29 994.62 588.36 994.35 588.51 L 980.34 596.57 C 980.07 596.73 979.85 596.94 979.7 597.21 C 979.54 597.49 979.46 597.79 979.47 598.11 C 979.48 598.42 979.56 598.71 979.73 598.98 C 979.89 599.25 980.12 599.46 980.4 599.61 L 1005.92 612.96 C 1006.12 613.07 1006.3 613.21 1006.45 613.39 C 1006.59 613.57 1006.7 613.76 1006.77 613.98 C 1006.84 614.2 1006.86 614.43 1006.84 614.66 C 1006.82 614.89 1006.75 615.11 1006.65 615.31 L 1000.74 626.59 C 1000.59 626.88 1000.38 627.1 1000.11 627.27 C 999.83 627.44 999.54 627.52 999.21 627.52 C 998.92 627.52 998.65 627.46 998.4 627.32 L 961.83 608.14 C 961.58 608 961.31 607.93 961.02 607.94 C 960.71 607.93 960.43 608.01 960.16 608.17 L 915.41 633.89 C 915.14 634.04 914.93 634.25 914.77 634.52 C 914.62 634.79 914.54 635.08 914.54 635.39 C 914.54 635.7 914.62 635.99 914.77 636.26 C 914.93 636.53 915.14 636.74 915.41 636.9 L 960.73 663.19 C 961.29 663.5 961.85 663.5 962.41 663.19 L 998.42 644.57 C 998.67 644.44 998.94 644.38 999.22 644.38 C 999.55 644.38 999.85 644.46 1000.12 644.63 C 1000.4 644.8 1000.61 645.02 1000.77 645.31 L 1006.61 656.6 C 1006.71 656.8 1006.77 657.02 1006.79 657.25 C 1006.81 657.48 1006.79 657.7 1006.72 657.92 C 1006.65 658.14 1006.54 658.34 1006.39 658.52 C 1006.25 658.69 1006.07 658.83 1005.87 658.94 L 980.98 671.8 C 980.7 671.94 980.48 672.15 980.31 672.42 C 980.15 672.69 980.06 672.98 980.05 673.3 C 980.05 673.62 980.12 673.91 980.28 674.19 C 980.43 674.46 980.65 674.68 980.92 674.84 L 995.26 683.14 C 995.53 683.3 995.82 683.38 996.12 683.38 C 996.25 683.39 996.38 683.39 996.5 683.38 L 1013.86 679.59 C 1013.98 679.57 1014.11 679.57 1014.23 679.59 C 1014.61 679.58 1014.95 679.7 1015.26 679.92 C 1015.57 680.14 1015.77 680.43 1015.88 680.8 L 1026 712.94 C 1026.07 713.17 1026.09 713.41 1026.07 713.65 C 1026.04 713.89 1025.97 714.12 1025.84 714.33 C 1025.72 714.54 1025.56 714.72 1025.37 714.87 C 1025.17 715.01 1024.95 715.11 1024.71 715.16 L 991.75 722.36 C 991.63 722.37 991.5 722.37 991.38 722.36 C 991 722.36 990.66 722.25 990.36 722.03 C 990.05 721.8 989.84 721.51 989.73 721.15 L 984.11 703.16 C 983.96 702.73 983.7 702.4 983.31 702.17 L 969.38 694.07 C 969.11 693.91 968.81 693.84 968.5 693.84 C 968.18 693.84 967.89 693.93 967.61 694.09 C 967.34 694.25 967.13 694.48 966.98 694.75 C 966.83 695.03 966.77 695.33 966.78 695.65 L 967.98 724.42 C 967.99 724.65 967.95 724.87 967.88 725.09 C 967.8 725.3 967.68 725.5 967.52 725.67 C 967.37 725.84 967.18 725.97 966.98 726.07 C 966.77 726.16 966.55 726.22 966.32 726.23 L 953.59 726.76 L 953.51 726.76 C 953.29 726.76 953.07 726.72 952.86 726.63 C 952.66 726.55 952.47 726.43 952.31 726.27 C 952.15 726.12 952.02 725.94 951.93 725.73 C 951.84 725.53 951.79 725.32 951.78 725.09 L 950.06 683.8 C 950.05 683.5 949.97 683.22 949.81 682.97 C 949.66 682.71 949.45 682.51 949.2 682.36 L 904.48 656.46 C 904.21 656.31 903.92 656.23 903.61 656.23 C 903.38 656.23 903.15 656.27 902.94 656.36 C 902.73 656.45 902.54 656.58 902.38 656.74 C 902.22 656.9 902.09 657.09 902 657.3 C 901.91 657.51 901.87 657.73 901.87 657.96 L 901.76 710.37 C 901.76 710.67 901.83 710.95 901.97 711.21 C 902.12 711.47 902.31 711.68 902.57 711.84 L 936.72 733.7 C 936.92 733.82 937.08 733.98 937.21 734.17 C 937.34 734.36 937.43 734.56 937.48 734.79 C 937.53 735.01 937.53 735.24 937.49 735.46 C 937.45 735.69 937.37 735.9 937.25 736.09 L 930.38 746.81 C 930.25 747 930.1 747.16 929.91 747.29 C 929.72 747.42 929.51 747.51 929.29 747.56 C 929.06 747.61 928.84 747.62 928.61 747.58 C 928.39 747.54 928.18 747.46 927.98 747.34 L 904.41 732.23 C 904.12 732.05 903.81 731.96 903.48 731.95 C 903.25 731.95 903.02 731.99 902.81 732.08 C 902.6 732.17 902.41 732.29 902.24 732.46 C 902.08 732.62 901.95 732.81 901.86 733.02 C 901.78 733.23 901.73 733.45 901.73 733.68 L 901.73 750.25 C 901.73 750.7 901.88 751.09 902.18 751.43 L 914.09 764.57 C 914.24 764.73 914.35 764.92 914.43 765.12 C 914.51 765.32 914.55 765.53 914.55 765.75 C 914.55 765.96 914.51 766.18 914.43 766.38 C 914.35 766.58 914.24 766.76 914.09 766.92 L 891.28 791.78 C 890.94 792.15 890.51 792.34 890.01 792.34 C 889.49 792.34 889.06 792.15 888.72 791.77 L 866 766.82 C 865.86 766.66 865.75 766.48 865.67 766.28 C 865.59 766.08 865.55 765.87 865.55 765.65 C 865.55 765.43 865.59 765.23 865.67 765.02 C 865.75 764.82 865.86 764.64 866 764.48 L 878.79 750.55 C 879.09 750.21 879.25 749.82 879.25 749.37 L 879.25 733.22 C 879.25 732.99 879.21 732.77 879.12 732.55 C 879.03 732.34 878.91 732.15 878.74 731.98 C 878.58 731.82 878.39 731.7 878.17 731.61 C 877.96 731.52 877.73 731.48 877.5 731.48 C 877.17 731.48 876.86 731.57 876.58 731.76 L 852.31 747.2 C 852.12 747.32 851.91 747.4 851.68 747.44 C 851.45 747.48 851.23 747.47 851 747.42 C 850.78 747.37 850.57 747.28 850.38 747.15 C 850.19 747.02 850.04 746.86 849.91 746.66 L 843.1 735.95 C 842.97 735.75 842.89 735.54 842.85 735.31 C 842.81 735.09 842.82 734.86 842.87 734.63 C 842.92 734.41 843.01 734.2 843.14 734.01 C 843.27 733.82 843.44 733.67 843.63 733.55 L 878.54 711.41 C 878.79 711.25 878.99 711.04 879.13 710.79 C 879.27 710.52 879.34 710.25 879.34 709.95 L 879.45 658.35 C 879.45 658.12 879.41 657.89 879.32 657.68 C 879.23 657.47 879.11 657.28 878.95 657.11 C 878.79 656.95 878.6 656.82 878.38 656.73 C 878.17 656.65 877.95 656.6 877.72 656.6 C 877.41 656.6 877.12 656.68 876.86 656.84 L 831.39 682.9 C 830.84 683.21 830.55 683.69 830.52 684.32 L 828.66 724.84 C 828.65 725.07 828.6 725.28 828.51 725.48 C 828.41 725.69 828.29 725.86 828.12 726.02 C 827.96 726.17 827.78 726.29 827.57 726.37 C 827.37 726.45 827.15 726.5 826.93 726.5 L 826.84 726.5 L 814.12 725.92 C 813.89 725.91 813.67 725.85 813.46 725.75 C 813.25 725.66 813.07 725.52 812.91 725.35 C 812.76 725.18 812.64 724.99 812.56 724.77 C 812.48 724.55 812.45 724.33 812.46 724.09 L 813.74 696.11 C 813.75 695.87 813.71 695.64 813.63 695.42 C 813.55 695.2 813.42 695 813.26 694.83 C 813.09 694.66 812.9 694.53 812.68 694.44 C 812.47 694.34 812.24 694.3 812 694.3 C 811.7 694.29 811.41 694.37 811.14 694.52 L 796.78 702.79 C 796.39 703.01 796.12 703.33 795.98 703.76 L 790.63 720.69 C 790.51 721.05 790.3 721.34 790 721.56 C 789.7 721.78 789.36 721.89 788.98 721.9 C 788.85 721.91 788.73 721.91 788.6 721.9 L 755.63 714.53 C 755.39 714.47 755.18 714.38 754.98 714.23 C 754.78 714.09 754.62 713.91 754.5 713.7 C 754.38 713.48 754.31 713.25 754.28 713.01 C 754.26 712.77 754.28 712.53 754.36 712.3 L 764.6 680.15 C 764.72 679.79 764.93 679.5 765.23 679.28 C 765.54 679.06 765.88 678.95 766.26 678.94 Z M 766.25 678.94 " fill-opacity="1" fill-rule="nonzero"/></g></svg>